<svg width="512" height="512" viewBox="0 0 512 512" fill="none" xmlns="http://www.w3.org/2000/svg">
<path d="M457 0H55C24.673 0 0 24.673 0 55V457C0 487.327 24.673 512 55 512H457C487.327 512 512 487.327 512 457V55C512 24.673 487.327 0 457 0ZM482 457C482 470.785 470.785 482 457 482H55C41.215 482 30 470.785 30 457V55C30 41.215 41.215 30 55 30H457C470.785 30 482 41.215 482 55V457Z" fill="white"/>
<path d="M431 181H81C72.716 181 66 187.716 66 196V436C66 444.284 72.716 451 81 451H431C439.284 451 446 444.284 446 436V196C446 187.716 439.284 181 431 181ZM96 291H136V341H96V291ZM166 291H206V341H166V291ZM206 261H184.056L206 235.922V261ZM166 236.078V211H187.944L166 236.078ZM166 371H187.944L166 396.078V371ZM206 395.922V421H184.056L206 395.922ZM236 291H276V341H236V291ZM306 291H327.944L306 316.078V291ZM346 315.922V341H324.056L346 315.922ZM376 291H416V341H376V291ZM416 261H376V211H416V261ZM346 261H306V211H346V261ZM276 261H236V211H276V261ZM96 211H136V261H96V211ZM96 371H136V421H96V371ZM236 371H276V421H236V371ZM306 371H346V421H306V371ZM416 421H376V371H416V421Z" fill="white"/>
<path d="M190.474 151C195.997 151 200.474 146.523 200.474 141V103.209L229.49 145.227C232.381 149.401 237.219 151.169 241.817 149.732C246.5 148.269 249.525 143.916 249.525 138.544L248.871 70.9028C248.817 65.3808 244.264 60.9328 238.775 60.9998C233.253 61.0528 228.819 65.5738 228.872 71.0958L229.245 109.676L198.702 65.4468C196.215 61.8458 191.676 60.2808 187.497 61.5828C183.319 62.8848 180.473 66.7528 180.473 71.1298V141C180.474 146.523 184.951 151 190.474 151V151Z" fill="white"/>
<path d="M152 151C157.523 151 162 146.523 162 141V71C162 65.477 157.523 61 152 61C146.477 61 142 65.477 142 71V141C142 146.523 146.477 151 152 151Z" fill="white"/>
<path d="M75 151H75.044C75.046 151 93.733 150.917 98.884 150.917C114.787 150.917 127.726 137.979 127.726 122.075C127.726 113.414 123.884 105.639 117.82 100.348C120.116 96.463 121.44 91.938 121.44 87.107C121.44 72.711 109.729 61 95.333 61H75C69.477 61 65 65.477 65 71V141C65 143.66 66.06 146.21 67.945 148.087C69.819 149.953 72.356 151 75 151ZM98.884 130.917C96.302 130.917 90.331 130.938 85 130.959V113.245C86.025 113.241 98.884 113.234 98.884 113.234C103.759 113.234 107.726 117.201 107.726 122.076C107.726 126.951 103.76 130.917 98.884 130.917ZM95.333 81C98.7 81 101.44 83.74 101.44 87.107C101.44 90.475 98.7 93.214 95.333 93.214C93.858 93.214 85 93.233 85 93.233V81H95.333Z" fill="white"/>
<path d="M308.893 151C332.57 151 349.107 132.495 349.107 106C349.107 100.477 344.63 96 339.107 96H318.167C312.644 96 308.167 100.477 308.167 106C308.167 111.523 312.644 116 318.167 116H327.777C325.402 124.281 319.643 131 308.893 131C295.108 131 283.893 119.785 283.893 106C283.893 92.215 295.108 81 308.893 81C313.904 81 318.735 82.475 322.864 85.264C327.44 88.357 333.657 87.152 336.748 82.576C339.84 78 338.636 71.784 334.06 68.692C326.612 63.66 317.91 61 308.893 61C284.08 61 263.893 81.187 263.893 106C263.893 130.813 284.08 151 308.893 151V151Z" fill="white"/>
<path d="M405 61C380.187 61 360 81.187 360 106C360 130.813 380.187 151 405 151C429.813 151 450 130.813 450 106C450 81.187 429.813 61 405 61ZM405 131C391.215 131 380 119.785 380 106C380 92.215 391.215 81 405 81C418.785 81 430 92.215 430 106C430 119.785 418.785 131 405 131Z" fill="white"/>
</svg>
