<svg width="512" height="512" viewBox="0 0 512 512" fill="none" xmlns="http://www.w3.org/2000/svg">
<path d="M477.867 102.4C459.042 102.4 443.734 117.709 443.734 136.533C443.734 155.357 459.043 170.666 477.867 170.666C496.691 170.666 512 155.358 512 136.533C512 117.709 496.691 102.4 477.867 102.4ZM477.867 153.6C468.455 153.6 460.8 145.946 460.8 136.533C460.8 127.121 468.454 119.466 477.867 119.466C487.28 119.466 494.934 127.12 494.934 136.533C494.933 145.946 487.279 153.6 477.867 153.6Z" fill="white"/>
<path d="M34.133 384C15.309 384 0 399.309 0 418.133C0 436.957 15.309 452.266 34.133 452.266C52.958 452.266 68.266 436.957 68.266 418.133C68.266 399.309 52.958 384 34.133 384ZM34.133 435.2C24.721 435.2 17.066 427.546 17.066 418.133C17.066 408.72 24.72 401.066 34.133 401.066C43.545 401.066 51.2 408.72 51.2 418.133C51.2 427.546 43.546 435.2 34.133 435.2Z" fill="white"/>
<path d="M461.321 113.185L387.704 77.6443C383.454 75.5873 378.36 77.3794 376.312 81.6214C374.264 85.8624 376.047 90.9654 380.289 93.0134L453.906 128.554C455.101 129.134 456.364 129.407 457.609 129.407C460.783 129.407 463.83 127.632 465.297 124.577C467.345 120.336 465.562 115.233 461.321 113.185Z" fill="white"/>
<path d="M384 443.732C365.175 443.732 349.867 459.041 349.867 477.865C349.867 496.689 365.175 511.999 384 511.999C402.825 511.999 418.133 496.69 418.133 477.866C418.133 459.042 402.825 443.732 384 443.732ZM384 494.932C374.588 494.932 366.933 487.278 366.933 477.865C366.933 468.452 374.588 460.799 384 460.799C393.412 460.799 401.067 468.453 401.067 477.866C401.067 487.279 393.412 494.932 384 494.932Z" fill="white"/>
<path d="M367.454 454.521L293.837 418.98C289.587 416.923 284.493 418.707 282.445 422.957C280.397 427.198 282.18 432.301 286.422 434.349L360.039 469.89C361.234 470.47 362.497 470.743 363.742 470.743C366.916 470.743 369.963 468.968 371.431 465.913C373.478 461.671 371.695 456.569 367.454 454.521Z" fill="white"/>
<path d="M256 230.4C237.175 230.4 221.867 245.709 221.867 264.533C221.867 283.358 237.176 298.666 256 298.666C274.825 298.666 290.133 283.357 290.133 264.533C290.133 245.709 274.825 230.4 256 230.4ZM256 281.6C246.588 281.6 238.933 273.946 238.933 264.533C238.933 255.121 246.587 247.466 256 247.466C265.412 247.466 273.067 255.12 273.067 264.533C273.067 273.946 265.412 281.6 256 281.6Z" fill="white"/>
<path d="M240.998 242.142L184.448 198.067C180.727 195.191 175.369 195.831 172.467 199.552C169.574 203.273 170.231 208.631 173.952 211.533L230.502 255.608C232.064 256.82 233.907 257.409 235.742 257.409C238.285 257.409 240.794 256.283 242.483 254.124C245.376 250.402 244.719 245.043 240.998 242.142Z" fill="white"/>
<path d="M409.6 221.867C357.845 221.867 315.733 263.979 315.733 315.734C315.733 367.489 357.845 409.601 409.6 409.601C461.355 409.601 503.467 367.489 503.467 315.734C503.467 263.979 461.355 221.867 409.6 221.867ZM409.6 392.533C367.249 392.533 332.8 358.084 332.8 315.733C332.8 273.382 367.249 238.933 409.6 238.933C451.951 238.933 486.4 273.382 486.4 315.733C486.4 358.084 451.951 392.533 409.6 392.533Z" fill="white"/>
<path d="M409.6 256C390.775 256 375.467 271.309 375.467 290.133C375.467 308.958 390.776 324.266 409.6 324.266C428.425 324.266 443.733 308.957 443.733 290.133C443.733 271.309 428.425 256 409.6 256ZM409.6 307.2C400.188 307.2 392.533 299.546 392.533 290.133C392.533 280.721 400.187 273.066 409.6 273.066C419.012 273.066 426.667 280.72 426.667 290.133C426.667 299.546 419.012 307.2 409.6 307.2Z" fill="white"/>
<path d="M434.355 341.332H384.845C370.262 341.332 358.4 352.878 358.4 367.06V389.554C358.4 392.6 360.021 395.416 362.658 396.944C376.96 405.221 393.19 409.599 409.6 409.599C426.01 409.599 442.24 405.221 456.542 396.944C459.179 395.425 460.8 392.6 460.8 389.563V367.069C460.8 352.878 448.939 341.332 434.355 341.332ZM443.733 384.468C422.494 395.049 396.706 395.049 375.466 384.468V367.069C375.466 362.29 379.673 358.399 384.844 358.399H434.354C439.525 358.399 443.732 362.29 443.732 367.069V384.468H443.733Z" fill="white"/>
<path d="M204.8 324.268C153.045 324.268 110.933 366.38 110.933 418.135C110.933 469.89 153.045 512.001 204.8 512.001C256.555 512.001 298.667 469.889 298.667 418.134C298.667 366.379 256.555 324.268 204.8 324.268ZM204.8 494.934C162.449 494.934 128 460.485 128 418.134C128 375.783 162.449 341.334 204.8 341.334C247.151 341.334 281.6 375.783 281.6 418.134C281.6 460.485 247.151 494.934 204.8 494.934Z" fill="white"/>
<path d="M204.8 358.4C185.975 358.4 170.667 373.709 170.667 392.533C170.667 411.358 185.976 426.666 204.8 426.666C223.624 426.666 238.933 411.357 238.933 392.533C238.933 373.709 223.625 358.4 204.8 358.4ZM204.8 409.6C195.388 409.6 187.733 401.946 187.733 392.533C187.733 383.121 195.387 375.466 204.8 375.466C214.212 375.466 221.867 383.12 221.867 392.533C221.867 401.946 214.212 409.6 204.8 409.6Z" fill="white"/>
<path d="M229.555 443.732H180.045C165.462 443.732 153.6 455.278 153.6 469.46V491.954C153.6 495 155.221 497.816 157.858 499.344C172.16 507.621 188.39 511.999 204.8 511.999C221.21 511.999 237.44 507.621 251.742 499.344C254.379 497.825 256 495.001 256 491.963V469.469C256 455.278 244.139 443.732 229.555 443.732ZM238.933 486.868C217.693 497.449 191.906 497.449 170.666 486.868V469.469C170.666 464.69 174.873 460.799 180.044 460.799H229.554C234.725 460.799 238.932 464.69 238.932 469.469V486.868H238.933Z" fill="white"/>
<path d="M93.867 110.934C42.112 110.934 0 153.046 0 204.801C0 256.556 42.112 298.668 93.867 298.668C145.622 298.668 187.734 256.556 187.734 204.801C187.733 153.046 145.621 110.934 93.867 110.934ZM93.867 281.601C51.516 281.601 17.067 247.152 17.067 204.801C17.067 162.45 51.516 128.001 93.867 128.001C136.218 128.001 170.667 162.45 170.667 204.801C170.667 247.152 136.218 281.601 93.867 281.601Z" fill="white"/>
<path d="M93.8669 145.066C75.0419 145.066 59.7339 160.375 59.7339 179.199C59.7339 198.023 75.0429 213.332 93.8669 213.332C112.692 213.332 128 198.023 128 179.199C128 160.375 112.691 145.066 93.8669 145.066ZM93.8669 196.266C84.4549 196.266 76.7999 188.612 76.7999 179.199C76.7999 169.786 84.4539 162.132 93.8669 162.132C103.279 162.132 110.934 169.786 110.934 179.199C110.934 188.612 103.279 196.266 93.8669 196.266Z" fill="white"/>
<path d="M118.622 230.4H69.112C54.529 230.4 42.667 241.946 42.667 256.128V278.622C42.667 281.668 44.288 284.484 46.925 286.012C61.227 294.289 77.457 298.667 93.867 298.667C110.277 298.667 126.507 294.289 140.809 286.012C143.446 284.493 145.067 281.668 145.067 278.631V256.137C145.067 241.946 133.205 230.4 118.622 230.4ZM128 273.536C106.761 284.117 80.973 284.117 59.733 273.536V256.137C59.733 251.358 63.94 247.467 69.111 247.467H118.621C123.792 247.467 127.999 251.358 127.999 256.137V273.536H128Z" fill="white"/>
<path d="M298.667 0C246.912 0 204.8 42.112 204.8 93.867C204.8 145.622 246.912 187.734 298.667 187.734C350.422 187.734 392.534 145.622 392.534 93.867C392.533 42.112 350.421 0 298.667 0ZM298.667 170.667C256.316 170.667 221.867 136.218 221.867 93.867C221.867 51.516 256.316 17.067 298.667 17.067C341.018 17.067 375.467 51.516 375.467 93.867C375.467 136.218 341.018 170.667 298.667 170.667Z" fill="white"/>
<path d="M298.667 34.1328C279.842 34.1328 264.534 49.4418 264.534 68.2658C264.534 87.0898 279.843 102.399 298.667 102.399C317.491 102.399 332.8 87.0908 332.8 68.2668C332.8 49.4428 317.491 34.1328 298.667 34.1328ZM298.667 85.3328C289.255 85.3328 281.6 77.6788 281.6 68.2658C281.6 58.8538 289.254 51.1988 298.667 51.1988C308.08 51.1988 315.734 58.8528 315.734 68.2658C315.733 77.6788 308.079 85.3328 298.667 85.3328Z" fill="white"/>
<path d="M323.422 119.467H273.912C259.329 119.467 247.467 131.013 247.467 145.195V167.689C247.467 170.735 249.088 173.551 251.725 175.079C266.027 183.356 282.257 187.734 298.667 187.734C315.077 187.734 331.307 183.356 345.609 175.079C348.246 173.56 349.867 170.735 349.867 167.698V145.204C349.867 131.012 338.005 119.467 323.422 119.467ZM332.8 162.603C311.561 173.184 285.773 173.184 264.533 162.603V145.204C264.533 140.425 268.74 136.534 273.911 136.534H323.421C328.592 136.534 332.799 140.425 332.799 145.204V162.603H332.8Z" fill="white"/>
<path d="M219.827 88.3116C216.764 84.7446 211.379 84.3176 207.795 87.3816L148.659 137.985C145.075 141.048 144.657 146.433 147.72 150.017C149.41 151.988 151.799 153.004 154.205 153.004C156.168 153.004 158.139 152.33 159.752 150.947L218.888 100.344C222.473 97.2806 222.891 91.8956 219.827 88.3116Z" fill="white"/>
<path d="M407.893 225.288L356.693 157.021C353.868 153.241 348.518 152.498 344.746 155.314C340.974 158.139 340.215 163.489 343.039 167.252L394.239 235.519C395.92 237.755 398.48 238.932 401.074 238.932C402.849 238.932 404.65 238.377 406.186 237.225C409.958 234.401 410.718 229.051 407.893 225.288Z" fill="white"/>
<path d="M337.86 343.952C335.035 340.18 329.685 339.421 325.913 342.245L278.246 377.991C274.474 380.816 273.715 386.166 276.539 389.929C278.22 392.165 280.78 393.342 283.374 393.342C285.157 393.342 286.949 392.779 288.486 391.635L336.153 355.889C339.925 353.066 340.685 347.715 337.86 343.952Z" fill="white"/>
<path d="M119.467 409.6H59.7332C55.0232 409.6 51.2002 413.414 51.2002 418.133C51.2002 422.852 55.0232 426.666 59.7332 426.666H119.466C124.176 426.666 127.999 422.852 127.999 418.133C127.999 413.414 124.177 409.6 119.467 409.6Z" fill="white"/>
<path d="M93.8669 0C75.0419 0 59.7329 15.309 59.7329 34.133C59.7329 52.958 75.0419 68.266 93.8659 68.266C112.691 68.266 127.999 52.957 127.999 34.133C128 15.309 112.691 0 93.8669 0ZM93.8669 51.2C84.4549 51.2 76.7999 43.546 76.7999 34.133C76.7999 24.721 84.4539 17.066 93.8669 17.066C103.279 17.066 110.934 24.72 110.934 34.133C110.933 43.546 103.279 51.2 93.8669 51.2Z" fill="white"/>
<path d="M93.867 51.1992C89.157 51.1992 85.334 55.0132 85.334 59.7322V119.465C85.334 124.184 89.157 127.998 93.867 127.998C98.577 127.998 102.4 124.184 102.4 119.465V59.7322C102.4 55.0132 98.577 51.1992 93.867 51.1992Z" fill="white"/>
</svg>
