<svg width="214" height="214" viewBox="0 0 214 214" fill="none" xmlns="http://www.w3.org/2000/svg">
<path d="M207.73 15.4453H180.269C180.368 12.4035 180.424 9.34389 180.424 6.26953C180.424 2.80659 177.615 0 174.154 0H39.8458C36.3845 0 33.5763 2.80659 33.5763 6.26953C33.5763 9.34389 33.6318 12.4035 33.7314 15.4453H6.26953C2.80659 15.4453 0 18.2518 0 21.7148C0 49.8069 7.34221 76.3103 20.6731 96.3451C33.8506 116.151 51.4036 127.511 70.3657 128.617C74.6646 133.294 79.2083 137.108 83.9415 140.018V167.883H73.4237C60.7083 167.883 50.3652 178.228 50.3652 190.942V201.459H49.9195C46.4566 201.459 43.65 204.268 43.65 207.729C43.65 211.192 46.4566 213.998 49.9195 213.998H164.08C167.543 213.998 170.35 211.192 170.35 207.729C170.35 204.268 167.543 201.459 164.08 201.459H163.635V190.942C163.635 178.228 153.292 167.883 140.576 167.883H130.058V140.018C134.792 137.11 139.337 133.294 143.636 128.617C162.596 127.511 180.149 116.151 193.329 96.3451C206.659 76.3103 214 49.8069 214 21.7148C214 18.2518 211.193 15.4453 207.73 15.4453ZM31.1125 89.3996C20.1164 72.8751 13.6558 51.2616 12.6713 27.9843H34.4318C36.6931 56.5988 43.41 83.0484 53.9082 104.043C55.58 107.387 57.3287 110.546 59.1426 113.521C48.7146 109.583 39.0638 101.351 31.1125 89.3996ZM151.096 190.942V201.461H62.9043V190.942C62.9043 185.142 67.6228 180.422 73.4237 180.422H140.576C146.377 180.422 151.096 185.142 151.096 190.942ZM117.519 167.883H96.4806V145.466C99.9272 146.374 103.439 146.846 107 146.846C110.561 146.846 114.073 146.374 117.519 145.466V167.883ZM121.402 130.55C121.12 130.666 120.848 130.806 120.589 130.961C116.158 133.165 111.604 134.307 107 134.307C102.397 134.307 97.8455 133.165 93.416 130.965C93.1532 130.806 92.8805 130.666 92.5948 130.547C87.6787 127.947 82.9227 124.022 78.4247 118.865C78.1879 118.527 77.9218 118.215 77.6263 117.931C73.1609 112.63 68.9599 106.109 65.1231 98.4349C53.6012 75.3927 46.9464 45.0949 46.1888 12.5391H167.811C167.052 45.0949 160.397 75.3944 148.877 98.4349C145.04 106.109 140.839 112.63 136.375 117.931C136.078 118.215 135.809 118.528 135.574 118.866C131.076 124.026 126.318 127.949 121.402 130.55ZM182.887 89.3996C174.936 101.351 165.285 109.583 154.857 113.521C156.671 110.546 158.42 107.387 160.092 104.043C170.59 83.0484 177.305 56.5988 179.568 27.9843H201.329C200.344 51.2616 193.884 72.8751 182.887 89.3996Z" fill="white"/>
</svg>
