<svg width="192" height="192" viewBox="0 0 192 192" fill="none" xmlns="http://www.w3.org/2000/svg">
<g clip-path="url(#clip0)">
<path d="M95.906 0C43.023 0 0 43.023 0 95.906C0 148.789 43.023 191.812 95.906 191.812C148.789 191.812 191.812 148.789 191.812 95.906C191.812 43.023 148.789 0 95.906 0ZM95.906 176.812C51.294 176.812 15 140.518 15 95.906C15 51.294 51.294 15 95.906 15C140.518 15 176.812 51.294 176.812 95.906C176.812 140.518 140.518 176.812 95.906 176.812Z" fill="#ffffff"/>
<path d="M49.7329 99.7898L66.9369 89.0568C69.8649 87.2298 69.1229 82.7748 65.7609 81.9968L59.1499 80.4658C65.0699 65.5778 79.6149 55.2608 96.3289 55.2608C112.751 55.2608 127.327 65.1028 133.461 80.3338C135.008 84.1758 139.378 86.0348 143.22 84.4888C147.062 82.9418 148.923 78.5718 147.375 74.7298C138.942 53.7908 118.905 40.2598 96.3289 40.2598C72.5619 40.2598 51.9839 55.4368 44.4149 77.0518L37.8229 75.5248C34.4609 74.7458 31.8359 78.4208 33.6619 81.3488L44.3949 98.5528C45.5279 100.369 47.9169 100.923 49.7329 99.7898Z" fill="#ffffff"/>
<path d="M158.188 113.465L147.784 96.0604C146.686 94.2244 144.308 93.6254 142.471 94.7234L125.066 105.127C122.104 106.898 122.761 111.366 126.108 112.208L132.758 113.882C126.147 127.728 111.963 136.835 95.9418 136.544C80.1698 136.258 65.9908 126.69 59.8198 112.166C58.1998 108.354 53.7968 106.575 49.9838 108.196C46.1718 109.816 44.3948 114.219 46.0138 118.032C54.4958 137.995 73.9878 151.149 95.6698 151.542C96.0128 151.548 96.3518 151.551 96.6928 151.551C119.368 151.551 139.179 137.883 147.513 117.597L153.915 119.209C157.264 120.052 159.959 116.428 158.188 113.465Z" fill="#ffffff"/>
</g>
<defs>
<clipPath id="clip0">
<rect width="191.812" height="191.812" fill="white"/>
</clipPath>
</defs>
</svg>
