<svg width="43" height="43" viewBox="0 0 43 43" fill="none" xmlns="http://www.w3.org/2000/svg">
<path d="M35.8335 0H7.16683V3.58333H35.8335V0ZM7.16683 43H35.8335V39.4167H7.16683V43ZM35.8335 7.16667H7.16683C5.196 7.16667 3.5835 8.77917 3.5835 10.75V32.25C3.5835 34.2208 5.196 35.8333 7.16683 35.8333H35.8335C37.8043 35.8333 39.4168 34.2208 39.4168 32.25V10.75C39.4168 8.77917 37.8043 7.16667 35.8335 7.16667ZM21.5002 12.0938C23.7218 12.0938 25.5314 13.9033 25.5314 16.125C25.5314 18.3467 23.7218 20.1562 21.5002 20.1562C19.2785 20.1562 17.4689 18.3467 17.4689 16.125C17.4689 13.9033 19.2785 12.0938 21.5002 12.0938ZM30.4585 30.4583H12.5418V27.7708C12.5418 24.7787 18.5081 23.2917 21.5002 23.2917C24.4922 23.2917 30.4585 24.7787 30.4585 27.7708V30.4583Z" fill="#F1F1F1"/>
</svg>
